<?xml version="1.0" standalone="no"?>
<!DOCTYPE svg PUBLIC "-//W3C//DTD SVG 20010904//EN"
 "http://www.w3.org/TR/2001/REC-SVG-20010904/DTD/svg10.dtd">
<svg version="1.0" xmlns="http://www.w3.org/2000/svg"
 width="135.000000pt" height="135.000000pt" viewBox="0 0 135.000000 135.000000"
 preserveAspectRatio="xMidYMid meet">
<metadata>
Created by potrace 1.11, written by Peter Selinger 2001-2013
</metadata>
<g transform="translate(0.000000,135.000000) scale(0.100000,-0.100000)"
fill="#000000" stroke="none">
<path d="M503 788 c-41 -11 -83 -65 -83 -107 0 -81 81 -137 158 -109 14 5 31
4 43 -2 15 -9 21 -7 26 6 3 9 1 19 -5 23 -7 4 -8 12 -2 21 6 8 10 34 10 57 0
75 -73 131 -147 111z m84 -50 c39 -43 40 -98 2 -98 -12 0 -19 -7 -19 -20 0
-31 -52 -30 -87 2 -27 26 -33 55 -16 90 25 51 85 64 120 26z"/>
<path d="M773 788 c-46 -12 -83 -61 -83 -109 0 -31 7 -47 33 -74 67 -71 170
-46 195 47 8 30 7 44 -10 77 -10 21 -27 42 -36 46 -43 18 -69 21 -99 13z m91
-59 c30 -35 31 -39 12 -83 -33 -80 -146 -54 -148 35 -1 24 6 39 26 56 38 33
78 30 110 -8z"/>
<path d="M7 783 c-3 -5 -3 -44 -1 -88 2 -74 5 -82 31 -102 38 -31 84 -30 117
3 14 15 26 31 27 35 4 43 1 150 -5 156 -14 14 -22 -18 -20 -82 3 -70 -11 -97
-53 -110 -17 -4 -30 1 -48 19 -22 22 -25 34 -25 95 0 62 -10 95 -23 74z"/>
<path d="M236 782 c-13 -12 9 -22 48 -22 51 0 71 -18 62 -55 -7 -26 -11 -27
-81 -29 l-40 -1 -3 -54 c-2 -40 0 -52 10 -49 8 3 13 20 13 41 l-1 37 47 0 c39
0 51 5 68 26 44 55 14 103 -66 108 -29 2 -55 1 -57 -2z"/>
<path d="M962 776 c-11 -18 -9 -205 3 -209 22 -8 92 -1 122 12 31 13 63 61 63
96 0 35 -32 83 -63 96 -39 16 -116 19 -125 5z m116 -38 c42 -22 43 -89 2 -120
-14 -10 -39 -19 -55 -21 l-30 -2 -3 74 c-2 50 1 77 9 82 15 9 46 4 77 -13z"/>
<path d="M1192 675 l3 -110 65 0 c74 -1 90 2 90 19 0 9 -18 12 -60 11 -41 -1
-61 2 -64 11 -7 19 13 28 55 25 26 -2 38 2 42 13 5 12 0 16 -21 17 -15 1 -33
1 -41 0 -7 -2 -20 0 -28 3 -29 11 6 37 41 32 17 -3 38 -1 46 4 23 15 -6 29
-52 25 -21 -2 -40 0 -42 4 -11 17 13 27 64 27 41 -1 55 3 58 14 2 13 -11 16
-78 16 l-81 -1 3 -110z"/>
</g>
</svg>
